<svg xmlns="http://www.w3.org/2000/svg" width="280" height="280"><rect x="0" y="0" width="100%" height="100%" fill="rgb(64, 196, 162)"  /><polyline points="15.4,0,31.266666666666666,0,46.666666666666664,15.4,46.666666666666664,31.266666666666666,31.266666666666666,46.666666666666664,15.4,46.666666666666664,0,31.266666666666666,0,15.4,15.4,0" fill="#222" fill-opacity="0.11533333333333334" stroke="#000" stroke-opacity="0.02" transform="translate(0.0, 0.0)"  /><polyline points="15.4,0,31.266666666666666,0,46.666666666666664,15.4,46.666666666666664,31.266666666666666,31.266666666666666,46.666666666666664,15.4,46.666666666666664,0,31.266666666666666,0,15.4,15.4,0" fill="#ddd" fill-opacity="0.08933333333333333" stroke="#000" stroke-opacity="0.02" transform="translate(46.666666666666664, 0.0)"  /><polyline points="15.4,0,31.266666666666666,0,46.666666666666664,15.4,46.666666666666664,31.266666666666666,31.266666666666666,46.666666666666664,15.4,46.666666666666664,0,31.266666666666666,0,15.4,15.4,0" fill="#ddd" fill-opacity="0.12400000000000001" stroke="#000" stroke-opacity="0.02" transform="translate(93.33333333333333, 0.0)"  /><polyline points="15.4,0,31.266666666666666,0,46.666666666666664,15.4,46.666666666666664,31.266666666666666,31.266666666666666,46.666666666666664,15.4,46.666666666666664,0,31.266666666666666,0,15.4,15.4,0" fill="#ddd" fill-opacity="0.07200000000000001" stroke="#000" stroke-opacity="0.02" transform="translate(140.0, 0.0)"  /><polyline points="15.4,0,31.266666666666666,0,46.666666666666664,15.4,46.666666666666664,31.266666666666666,31.266666666666666,46.666666666666664,15.4,46.666666666666664,0,31.266666666666666,0,15.4,15.4,0" fill="#ddd" fill-opacity="0.03733333333333333" stroke="#000" stroke-opacity="0.02" transform="translate(186.66666666666666, 0.0)"  /><polyline points="15.4,0,31.266666666666666,0,46.666666666666664,15.4,46.666666666666664,31.266666666666666,31.266666666666666,46.666666666666664,15.4,46.666666666666664,0,31.266666666666666,0,15.4,15.4,0" fill="#222" fill-opacity="0.046" stroke="#000" stroke-opacity="0.02" transform="translate(233.33333333333331, 0.0)"  /><polyline points="15.4,0,31.266666666666666,0,46.666666666666664,15.4,46.666666666666664,31.266666666666666,31.266666666666666,46.666666666666664,15.4,46.666666666666664,0,31.266666666666666,0,15.4,15.4,0" fill="#222" fill-opacity="0.046" stroke="#000" stroke-opacity="0.02" transform="translate(0.0, 46.666666666666664)"  /><polyline points="15.4,0,31.266666666666666,0,46.666666666666664,15.4,46.666666666666664,31.266666666666666,31.266666666666666,46.666666666666664,15.4,46.666666666666664,0,31.266666666666666,0,15.4,15.4,0" fill="#ddd" fill-opacity="0.08933333333333333" stroke="#000" stroke-opacity="0.02" transform="translate(46.666666666666664, 46.666666666666664)"  /><polyline points="15.4,0,31.266666666666666,0,46.666666666666664,15.4,46.666666666666664,31.266666666666666,31.266666666666666,46.666666666666664,15.4,46.666666666666664,0,31.266666666666666,0,15.4,15.4,0" fill="#ddd" fill-opacity="0.07200000000000001" stroke="#000" stroke-opacity="0.02" transform="translate(93.33333333333333, 46.666666666666664)"  /><polyline points="15.4,0,31.266666666666666,0,46.666666666666664,15.4,46.666666666666664,31.266666666666666,31.266666666666666,46.666666666666664,15.4,46.666666666666664,0,31.266666666666666,0,15.4,15.4,0" fill="#ddd" fill-opacity="0.10666666666666667" stroke="#000" stroke-opacity="0.02" transform="translate(140.0, 46.666666666666664)"  /><polyline points="15.4,0,31.266666666666666,0,46.666666666666664,15.4,46.666666666666664,31.266666666666666,31.266666666666666,46.666666666666664,15.4,46.666666666666664,0,31.266666666666666,0,15.4,15.4,0" fill="#ddd" fill-opacity="0.08933333333333333" stroke="#000" stroke-opacity="0.02" transform="translate(186.66666666666666, 46.666666666666664)"  /><polyline points="15.4,0,31.266666666666666,0,46.666666666666664,15.4,46.666666666666664,31.266666666666666,31.266666666666666,46.666666666666664,15.4,46.666666666666664,0,31.266666666666666,0,15.4,15.4,0" fill="#ddd" fill-opacity="0.03733333333333333" stroke="#000" stroke-opacity="0.02" transform="translate(233.33333333333331, 46.666666666666664)"  /><polyline points="15.4,0,31.266666666666666,0,46.666666666666664,15.4,46.666666666666664,31.266666666666666,31.266666666666666,46.666666666666664,15.4,46.666666666666664,0,31.266666666666666,0,15.4,15.4,0" fill="#222" fill-opacity="0.028666666666666667" stroke="#000" stroke-opacity="0.02" transform="translate(0.0, 93.33333333333333)"  /><polyline points="15.4,0,31.266666666666666,0,46.666666666666664,15.4,46.666666666666664,31.266666666666666,31.266666666666666,46.666666666666664,15.4,46.666666666666664,0,31.266666666666666,0,15.4,15.4,0" fill="#ddd" fill-opacity="0.02" stroke="#000" stroke-opacity="0.02" transform="translate(46.666666666666664, 93.33333333333333)"  /><polyline points="15.4,0,31.266666666666666,0,46.666666666666664,15.4,46.666666666666664,31.266666666666666,31.266666666666666,46.666666666666664,15.4,46.666666666666664,0,31.266666666666666,0,15.4,15.4,0" fill="#ddd" fill-opacity="0.08933333333333333" stroke="#000" stroke-opacity="0.02" transform="translate(93.33333333333333, 93.33333333333333)"  /><polyline points="15.4,0,31.266666666666666,0,46.666666666666664,15.4,46.666666666666664,31.266666666666666,31.266666666666666,46.666666666666664,15.4,46.666666666666664,0,31.266666666666666,0,15.4,15.4,0" fill="#222" fill-opacity="0.11533333333333334" stroke="#000" stroke-opacity="0.02" transform="translate(140.0, 93.33333333333333)"  /><polyline points="15.4,0,31.266666666666666,0,46.666666666666664,15.4,46.666666666666664,31.266666666666666,31.266666666666666,46.666666666666664,15.4,46.666666666666664,0,31.266666666666666,0,15.4,15.4,0" fill="#222" fill-opacity="0.08066666666666666" stroke="#000" stroke-opacity="0.02" transform="translate(186.66666666666666, 93.33333333333333)"  /><polyline points="15.4,0,31.266666666666666,0,46.666666666666664,15.4,46.666666666666664,31.266666666666666,31.266666666666666,46.666666666666664,15.4,46.666666666666664,0,31.266666666666666,0,15.4,15.4,0" fill="#ddd" fill-opacity="0.02" stroke="#000" stroke-opacity="0.02" transform="translate(233.33333333333331, 93.33333333333333)"  /><polyline points="15.4,0,31.266666666666666,0,46.666666666666664,15.4,46.666666666666664,31.266666666666666,31.266666666666666,46.666666666666664,15.4,46.666666666666664,0,31.266666666666666,0,15.4,15.4,0" fill="#222" fill-opacity="0.098" stroke="#000" stroke-opacity="0.02" transform="translate(0.0, 140.0)"  /><polyline points="15.4,0,31.266666666666666,0,46.666666666666664,15.4,46.666666666666664,31.266666666666666,31.266666666666666,46.666666666666664,15.4,46.666666666666664,0,31.266666666666666,0,15.4,15.4,0" fill="#ddd" fill-opacity="0.02" stroke="#000" stroke-opacity="0.02" transform="translate(46.666666666666664, 140.0)"  /><polyline points="15.4,0,31.266666666666666,0,46.666666666666664,15.4,46.666666666666664,31.266666666666666,31.266666666666666,46.666666666666664,15.4,46.666666666666664,0,31.266666666666666,0,15.4,15.4,0" fill="#ddd" fill-opacity="0.02" stroke="#000" stroke-opacity="0.02" transform="translate(93.33333333333333, 140.0)"  /><polyline points="15.4,0,31.266666666666666,0,46.666666666666664,15.4,46.666666666666664,31.266666666666666,31.266666666666666,46.666666666666664,15.4,46.666666666666664,0,31.266666666666666,0,15.4,15.4,0" fill="#ddd" fill-opacity="0.05466666666666667" stroke="#000" stroke-opacity="0.02" transform="translate(140.0, 140.0)"  /><polyline points="15.4,0,31.266666666666666,0,46.666666666666664,15.4,46.666666666666664,31.266666666666666,31.266666666666666,46.666666666666664,15.4,46.666666666666664,0,31.266666666666666,0,15.4,15.4,0" fill="#222" fill-opacity="0.028666666666666667" stroke="#000" stroke-opacity="0.02" transform="translate(186.66666666666666, 140.0)"  /><polyline points="15.4,0,31.266666666666666,0,46.666666666666664,15.4,46.666666666666664,31.266666666666666,31.266666666666666,46.666666666666664,15.4,46.666666666666664,0,31.266666666666666,0,15.4,15.4,0" fill="#222" fill-opacity="0.028666666666666667" stroke="#000" stroke-opacity="0.02" transform="translate(233.33333333333331, 140.0)"  /><polyline points="15.4,0,31.266666666666666,0,46.666666666666664,15.4,46.666666666666664,31.266666666666666,31.266666666666666,46.666666666666664,15.4,46.666666666666664,0,31.266666666666666,0,15.4,15.4,0" fill="#222" fill-opacity="0.13266666666666665" stroke="#000" stroke-opacity="0.02" transform="translate(0.0, 186.66666666666666)"  /><polyline points="15.4,0,31.266666666666666,0,46.666666666666664,15.4,46.666666666666664,31.266666666666666,31.266666666666666,46.666666666666664,15.4,46.666666666666664,0,31.266666666666666,0,15.4,15.4,0" fill="#222" fill-opacity="0.15" stroke="#000" stroke-opacity="0.02" transform="translate(46.666666666666664, 186.66666666666666)"  /><polyline points="15.4,0,31.266666666666666,0,46.666666666666664,15.4,46.666666666666664,31.266666666666666,31.266666666666666,46.666666666666664,15.4,46.666666666666664,0,31.266666666666666,0,15.4,15.4,0" fill="#ddd" fill-opacity="0.02" stroke="#000" stroke-opacity="0.02" transform="translate(93.33333333333333, 186.66666666666666)"  /><polyline points="15.4,0,31.266666666666666,0,46.666666666666664,15.4,46.666666666666664,31.266666666666666,31.266666666666666,46.666666666666664,15.4,46.666666666666664,0,31.266666666666666,0,15.4,15.4,0" fill="#222" fill-opacity="0.08066666666666666" stroke="#000" stroke-opacity="0.02" transform="translate(140.0, 186.66666666666666)"  /><polyline points="15.4,0,31.266666666666666,0,46.666666666666664,15.4,46.666666666666664,31.266666666666666,31.266666666666666,46.666666666666664,15.4,46.666666666666664,0,31.266666666666666,0,15.4,15.4,0" fill="#ddd" fill-opacity="0.10666666666666667" stroke="#000" stroke-opacity="0.02" transform="translate(186.66666666666666, 186.66666666666666)"  /><polyline points="15.4,0,31.266666666666666,0,46.666666666666664,15.4,46.666666666666664,31.266666666666666,31.266666666666666,46.666666666666664,15.4,46.666666666666664,0,31.266666666666666,0,15.4,15.4,0" fill="#ddd" fill-opacity="0.14133333333333334" stroke="#000" stroke-opacity="0.02" transform="translate(233.33333333333331, 186.66666666666666)"  /><polyline points="15.4,0,31.266666666666666,0,46.666666666666664,15.4,46.666666666666664,31.266666666666666,31.266666666666666,46.666666666666664,15.4,46.666666666666664,0,31.266666666666666,0,15.4,15.4,0" fill="#ddd" fill-opacity="0.03733333333333333" stroke="#000" stroke-opacity="0.02" transform="translate(0.0, 233.33333333333331)"  /><polyline points="15.4,0,31.266666666666666,0,46.666666666666664,15.4,46.666666666666664,31.266666666666666,31.266666666666666,46.666666666666664,15.4,46.666666666666664,0,31.266666666666666,0,15.4,15.4,0" fill="#ddd" fill-opacity="0.10666666666666667" stroke="#000" stroke-opacity="0.02" transform="translate(46.666666666666664, 233.33333333333331)"  /><polyline points="15.4,0,31.266666666666666,0,46.666666666666664,15.4,46.666666666666664,31.266666666666666,31.266666666666666,46.666666666666664,15.4,46.666666666666664,0,31.266666666666666,0,15.4,15.4,0" fill="#222" fill-opacity="0.028666666666666667" stroke="#000" stroke-opacity="0.02" transform="translate(93.33333333333333, 233.33333333333331)"  /><polyline points="15.4,0,31.266666666666666,0,46.666666666666664,15.4,46.666666666666664,31.266666666666666,31.266666666666666,46.666666666666664,15.4,46.666666666666664,0,31.266666666666666,0,15.4,15.4,0" fill="#222" fill-opacity="0.13266666666666665" stroke="#000" stroke-opacity="0.02" transform="translate(140.0, 233.33333333333331)"  /><polyline points="15.4,0,31.266666666666666,0,46.666666666666664,15.4,46.666666666666664,31.266666666666666,31.266666666666666,46.666666666666664,15.4,46.666666666666664,0,31.266666666666666,0,15.4,15.4,0" fill="#222" fill-opacity="0.046" stroke="#000" stroke-opacity="0.02" transform="translate(186.66666666666666, 233.33333333333331)"  /><polyline points="15.4,0,31.266666666666666,0,46.666666666666664,15.4,46.666666666666664,31.266666666666666,31.266666666666666,46.666666666666664,15.4,46.666666666666664,0,31.266666666666666,0,15.4,15.4,0" fill="#222" fill-opacity="0.06333333333333334" stroke="#000" stroke-opacity="0.02" transform="translate(233.33333333333331, 233.33333333333331)"  /></svg>